# xmcd CD database file
#
# Track frame offsets:
#	150
#	28453
#	61503
#	84720
#	102534
#	119518
#	144582
#	165976
#	195342
#	224231
#
# Disc length: 3237 seconds
#
# Revision: 0
# Processed by: cddbd v1.5.2PL0 Copyright (c) Steve Scherf et al.
# Submitted via: CDex 1.70beta1
#
DISCID=920ca30a
DTITLE=omnibus - club jazz a la modo
DYEAR=2006
DGENRE=Jazz
TTITLE0=Eu Vou Levar - Claude Monnet presents Monica Nogueira
TTITLE1=Three Corners (Nicora Conte Sahib's Samba Version) - The Five Corners Quintet
TTITLE2=Pom Pop - Minigroove Orchestra
TTITLE3=Haitari (Radio Edit) - La Casa Menthe
TTITLE4=Bliss (Quantic Mix) - Rosie Brown
TTITLE5=Gica's Dance - Gerardo Frisina
TTITLE6=Suave (Patchworks Clubjazz Mix) - Nu tropic
TTITLE7=Don't Care (Bellcrash Remix) - Langoth
TTITLE8=Amaro Shavo - !Deladap
TTITLE9=Don't Stop - Dolphin Boy
EXTD=YEAR: 2006
EXTT0=
EXTT1=
EXTT2=
EXTT3=
EXTT4=
EXTT5=
EXTT6=
EXTT7=
EXTT8=
EXTT9=
PLAYORDER=
